<?xml version="1.0" standalone="no"?>
<svg viewBox="0 0 200 200" xmlns="http://www.w3.org/2000/svg">
  <path fill="#0F62FE" d="M45.7,-80.7C58.7,-71.7,68.3,-58.3,75.6,-44.1C82.9,-29.9,88,-15,89.3,0.8C90.7,16.5,88.3,33,80.1,45.9C72,58.7,58.2,67.8,43.9,74.7C29.6,81.6,14.8,86.3,0.1,86.1C-14.6,86,-29.2,81,-42.8,73.6C-56.3,66.3,-68.7,56.5,-77.7,43.9C-86.7,31.2,-92.4,15.6,-93.2,-0.5C-94.1,-16.5,-90,-33.1,-81.9,-47.3C-73.7,-61.5,-61.4,-73.3,-47.1,-81.4C-32.7,-89.6,-16.4,-94.2,0,-94.2C16.4,-94.2,32.8,-89.7,45.7,-80.7Z" transform="translate(100 100)" />
</svg>
