<svg version="1.1" id="Layer_1" xmlns="http://www.w3.org/2000/svg" xmlns:xlink="http://www.w3.org/1999/xlink" x="0px" y="0px"
	 width="100%" viewBox="0 0 500 500" enable-background="new 0 0 500 500" xml:space="preserve">
<path fill="none" opacity="1.000000" stroke="none" 
	d="
M270.000000,501.000000 
	C180.000015,501.000000 90.500046,501.000000 1.000048,501.000000 
	C1.000032,334.333405 1.000032,167.666794 1.000016,1.000138 
	C167.666565,1.000092 334.333130,1.000092 500.999756,1.000046 
	C500.999847,167.666519 500.999847,334.333038 500.999939,500.999786 
	C424.166656,501.000000 347.333344,501.000000 270.000000,501.000000 
M394.018127,206.015732 
	C394.018127,206.015732 394.068085,206.103592 394.806580,206.358124 
	C394.905640,205.927567 395.004669,205.497025 395.018402,205.018494 
	C395.018402,205.018494 395.066650,205.103668 395.805084,205.359177 
	C395.904541,204.928329 396.003998,204.497498 396.017944,204.018509 
	C396.017944,204.018509 396.066772,204.103622 396.802704,204.360001 
	C396.902710,203.930222 397.002716,203.500427 397.008759,203.036835 
	C397.008759,203.036835 397.071869,203.114182 397.725830,203.482513 
	C398.169830,202.665833 398.613831,201.849152 398.999695,201.001984 
	C398.999695,201.001984 399.046936,201.047836 399.619446,200.925079 
	C399.779480,200.221100 399.939514,199.517105 400.649445,198.246063 
	C400.784943,198.020309 400.920471,197.794571 401.475494,197.637283 
	C401.896973,196.410156 402.318451,195.183029 403.140076,193.216705 
	C403.723785,190.332565 404.248962,187.435043 404.903961,184.567184 
	C406.117432,179.254303 404.472412,177.073563 399.099487,176.865250 
	C395.452087,176.723831 391.775299,176.710205 388.171570,176.208771 
	C381.219757,175.241440 381.000183,175.448837 379.830170,182.443710 
	C379.042664,187.151932 377.338318,191.799484 372.085114,193.069366 
	C367.032684,194.290726 362.875854,192.756210 359.830383,187.915237 
	C355.610016,181.206696 356.279083,173.618393 355.263123,166.353821 
	C355.135773,165.443207 357.726440,163.257507 359.156525,163.163406 
	C372.494141,162.285721 385.848633,161.565277 399.209198,161.195190 
	C403.259064,161.083008 404.627289,159.650482 404.193207,155.868286 
	C403.560394,150.354889 402.314240,144.809067 402.528290,139.323853 
	C402.912415,129.478928 399.692596,120.769493 393.456573,113.929100 
	C376.086914,94.876038 343.443970,101.428612 334.394348,125.657516 
	C331.533051,133.318253 329.569000,141.528549 328.642822,149.652466 
	C326.776550,166.022675 327.892670,182.250336 336.319977,196.994827 
	C341.255371,205.629852 348.141144,212.067169 359.184967,213.723282 
	C364.827271,213.791702 370.469543,213.860138 376.809845,214.009750 
	C377.502289,213.928314 378.194763,213.846878 379.676910,213.806625 
	C383.465790,212.220398 387.254669,210.634155 391.000000,209.001221 
	C391.000000,209.001221 391.043671,209.050354 391.753387,209.043472 
	C392.204681,208.390533 392.655975,207.737610 393.035370,206.992096 
	C393.035370,206.992096 393.081207,207.099762 393.809418,207.334229 
	C393.907471,206.912735 394.005493,206.491257 394.018127,206.015732 
M329.007965,384.008362 
	C329.007965,384.008362 329.027893,384.074402 329.613098,384.037109 
	C329.766571,383.701904 329.920044,383.366699 330.007629,383.007599 
	C330.007629,383.007599 330.032196,383.073242 330.601440,383.017944 
	C330.757080,382.687347 330.912720,382.356781 331.004211,382.003632 
	C331.004211,382.003632 331.040375,382.061218 331.674286,381.890137 
	C332.138794,380.936188 332.603333,379.982208 333.004608,379.002686 
	C333.004608,379.002686 333.040253,379.060852 333.646271,378.843597 
	C333.786835,378.230835 333.927399,377.618103 334.004181,377.002441 
	C334.004181,377.002441 334.029907,377.060852 334.701813,376.727264 
	C335.422516,373.013611 336.143219,369.299927 337.220337,365.213837 
	C337.329529,365.081207 337.438751,364.948547 337.645599,364.790070 
	C337.645599,364.790070 337.755829,364.632477 337.976074,363.746124 
	C336.989349,354.159485 335.144012,344.836090 326.049133,339.397491 
	C316.935120,333.947479 307.380737,329.229523 298.313416,323.707855 
	C294.772095,321.551361 291.390930,318.508331 289.100800,315.089417 
	C286.618439,311.383545 289.102539,305.557465 292.764374,304.196442 
	C300.567596,301.296143 309.160461,306.149658 310.452911,314.528595 
	C310.959778,317.814484 312.416809,318.908875 315.410431,318.469727 
	C320.779633,317.682098 326.182129,317.017670 331.465424,315.832214 
	C332.585571,315.580902 333.909943,313.370270 334.027191,311.969208 
	C335.033722,299.942444 325.172333,288.836548 312.962128,285.200836 
	C304.213440,282.595795 295.230988,282.218140 286.363800,284.289490 
	C274.981140,286.948456 265.560333,292.790802 263.364044,305.076019 
	C260.952972,318.562561 262.615631,328.239655 274.495941,336.888458 
	C280.024536,340.913330 286.403320,343.767212 292.381592,347.178375 
	C297.537415,350.120270 303.020844,352.640015 307.710968,356.200562 
	C311.841858,359.336609 312.126404,365.466492 309.491119,369.863434 
	C307.285065,373.544189 301.793671,375.635620 297.215942,374.538513 
	C291.284149,373.116913 288.089233,368.670227 288.098389,361.601562 
	C288.102112,358.737976 288.191986,356.020782 284.107666,356.390900 
	C278.651917,356.885284 273.205170,357.598053 267.738647,357.813873 
	C263.854614,357.967255 262.537964,360.097687 262.115875,363.415131 
	C260.688141,374.636139 269.434448,389.229675 280.495392,391.815002 
	C288.375153,393.656708 296.771667,393.206085 304.909515,394.049347 
	C312.051270,394.789429 317.833069,391.840912 324.043671,388.169189 
	C324.398132,387.799713 324.752594,387.430267 325.030487,387.040985 
	C325.030487,387.040985 325.026520,387.119995 325.653992,387.485443 
	C326.457520,386.665283 327.261047,385.845123 328.003479,385.004456 
	C328.003479,385.004456 328.014526,385.067963 328.586365,384.991638 
	C328.748962,384.670349 328.911560,384.349060 329.007965,384.008362 
M131.983810,105.961159 
	C131.983810,105.961159 132.062195,105.931824 131.480392,105.535675 
	C129.642120,105.665359 127.803856,105.795036 125.257553,105.764450 
	C124.538963,105.827698 123.820366,105.890953 122.468048,105.562866 
	C120.273232,105.691376 118.078423,105.819885 115.196030,106.011505 
	C114.467987,107.342537 113.739937,108.673569 112.573853,110.449287 
	C112.718369,111.631752 112.862885,112.814224 112.827652,114.920601 
	C112.897888,145.619110 112.968124,176.317612 112.648972,207.420807 
	C112.954330,208.701675 113.259689,209.982544 114.394630,211.850021 
	C121.137611,211.899780 127.881653,212.034195 134.622971,211.950089 
	C136.774979,211.923248 138.919754,211.316895 141.005035,210.991425 
	C141.005035,210.991425 141.033905,211.049362 141.769073,210.591629 
	C141.866669,196.644791 141.964279,182.697968 142.053970,167.886337 
	C141.977554,160.472214 143.720459,153.518936 147.800476,146.819870 
	C148.094009,146.224136 148.387558,145.628387 148.848328,145.054428 
	C148.848328,145.054428 148.877869,144.888382 149.548157,144.739700 
	C152.976730,139.804016 157.504318,136.680130 163.606705,135.997864 
	C165.343933,135.803635 167.041519,135.254532 169.578476,134.891846 
	C170.108826,134.776245 170.639175,134.660645 171.551361,134.819916 
	C171.551361,134.819916 171.974518,135.025574 171.957764,135.863876 
	C172.754288,137.949402 173.550797,140.034943 174.926071,142.613220 
	C182.165390,142.613220 189.404709,142.613220 197.112717,142.613220 
	C197.112717,140.223999 197.112717,137.766647 197.741272,134.820496 
	C198.500412,130.794479 198.816650,126.272980 203.789230,125.130058 
	C210.058029,123.689209 214.289963,125.673721 216.314957,130.397888 
	C218.989548,136.637436 217.830048,143.170532 213.054367,146.596054 
	C210.384201,148.511322 207.379913,150.027252 204.378159,151.399307 
	C198.944901,153.882782 193.295395,155.906281 187.923889,158.509216 
	C174.693939,164.920212 167.717407,175.042130 168.916565,190.323151 
	C169.741577,200.836304 176.395218,210.676941 185.478989,212.779541 
	C196.931091,215.430328 206.313705,212.454254 212.700806,202.033447 
	C213.837814,198.820877 214.755875,195.505005 216.202286,192.438354 
	C216.949142,190.854889 218.634628,189.714142 220.405106,189.077576 
	C220.664474,190.361801 220.922836,191.646240 221.183426,192.930237 
	C222.412109,198.983810 223.641373,205.037262 225.356079,211.821243 
	C232.829651,211.821243 240.303207,211.821243 248.558578,211.821243 
	C247.926453,209.423050 247.449646,207.614105 247.065079,204.954300 
	C246.346817,197.281342 245.628555,189.608368 245.034988,181.013245 
	C245.052002,167.866211 245.101715,154.719040 245.041931,141.572357 
	C245.034958,140.041885 244.422241,138.514160 244.133682,136.117523 
	C242.945602,118.215126 236.142014,107.426994 221.140045,104.728981 
	C213.467484,103.349113 205.264954,103.620148 197.467407,104.543068 
	C186.486740,105.842735 178.555511,112.069679 174.526382,122.685173 
	C173.768646,124.681549 173.100922,126.712074 172.391663,128.726852 
	C171.293060,126.547020 171.095154,124.622940 171.122681,122.702080 
	C171.203598,117.054405 171.373993,111.408012 171.586731,105.358841 
	C171.394318,105.059494 171.201920,104.760139 170.237869,103.930641 
	C156.995117,102.807533 147.970459,108.269920 143.724274,120.898109 
	C141.845306,126.486252 141.412369,132.553055 140.202942,138.377640 
	C139.724442,140.682022 141.591385,144.654465 137.524445,144.496887 
	C136.323380,144.450333 135.284134,139.940231 134.203735,137.461227 
	C134.080322,137.178070 134.153030,136.801086 134.164566,136.468643 
	C134.446213,128.365570 134.805695,120.264015 134.957428,112.158562 
	C134.989517,110.443573 134.264633,108.714409 133.778595,106.371689 
	C133.200348,106.215355 132.622086,106.059021 131.983810,105.961159 
M441.100464,163.264847 
	C441.068604,163.033356 441.036743,162.801849 441.077789,162.595642 
	C441.077789,162.595642 441.132294,162.541061 441.599243,162.122314 
	C441.451782,161.425766 441.304321,160.729233 441.049744,159.233444 
	C443.488556,153.810120 445.927399,148.386810 448.961426,142.772659 
	C453.911774,138.373993 459.186218,134.891113 466.322754,135.945206 
	C469.397400,136.399323 469.888458,134.177002 469.895447,131.840454 
	C469.918243,124.225548 469.882721,116.610451 469.988403,108.179573 
	C470.637482,104.588730 468.819824,103.420547 465.526917,103.422333 
	C455.615540,103.427727 448.457184,107.908882 443.761414,116.541046 
	C439.843781,123.742668 438.800049,131.549286 438.724884,139.597122 
	C438.699677,142.299454 438.758881,145.405502 434.252838,143.043045 
	C433.959320,135.041138 433.764252,127.033890 433.331055,119.039536 
	C433.111176,114.981934 432.462158,110.947578 431.695496,106.239014 
	C426.804138,105.954422 421.898834,105.814560 417.025513,105.343422 
	C412.407959,104.897011 411.009216,106.726318 411.033630,111.317139 
	C411.201141,142.873169 411.106201,174.430557 411.166229,205.987366 
	C411.169464,207.692917 411.806610,209.397263 412.602722,211.801132 
	C421.425201,211.765213 430.247681,211.729294 439.491516,211.689270 
	C439.743164,211.542267 439.928131,211.335571 440.698303,210.513840 
	C440.811890,194.996948 440.925446,179.480072 441.100464,163.264847 
M405.733826,342.675568 
	C415.416656,342.403870 415.416931,342.403870 414.983917,332.615936 
	C414.976715,332.452667 414.935394,332.290863 415.021851,331.245605 
	C414.068542,324.106750 413.792114,316.793518 412.007965,309.868713 
	C409.114990,298.640015 402.931244,289.352997 391.406342,285.407471 
	C368.782074,277.662140 349.158081,289.040649 342.680084,312.183868 
	C337.697205,329.985809 338.019867,347.622803 342.134491,365.245850 
	C345.559998,379.917358 353.938660,390.968445 369.656158,393.617432 
	C376.111176,394.705383 383.062775,393.852844 389.654999,392.929596 
	C408.378540,390.307251 414.501862,375.965576 415.794128,361.071716 
	C415.891510,359.949524 413.633118,357.771271 412.221039,357.527954 
	C407.827179,356.770874 403.315765,356.674591 398.845825,356.385468 
	C391.983032,355.941620 392.014832,355.971649 390.423767,362.946808 
	C390.019501,364.719086 389.528198,366.522675 388.737396,368.146576 
	C385.518158,374.757507 376.649658,376.255707 372.235168,370.442169 
	C366.370758,362.719208 365.890869,353.400177 367.210602,344.041656 
	C379.760406,343.536713 392.310181,343.031769 405.733826,342.675568 
M86.011284,211.002274 
	C86.011284,211.002274 86.023315,211.069122 86.803322,210.663696 
	C86.866241,200.670517 86.956566,190.677414 86.986740,180.684143 
	C87.064720,154.858582 87.116142,129.032928 88.069496,102.942879 
	C95.306145,102.922951 102.546356,102.762009 109.777870,102.944946 
	C113.189644,103.031265 114.594658,101.906181 114.464531,98.425102 
	C114.285789,93.643394 114.515594,88.846954 114.364632,84.063316 
	C114.324348,82.786980 113.533997,81.534325 112.177689,79.981842 
	C108.518211,79.995483 104.858696,80.025917 101.199257,80.019981 
	C79.892891,79.985428 58.586544,79.926392 37.280193,79.926445 
	C35.111942,79.926445 32.104588,79.100693 32.129539,82.797241 
	C32.170834,88.915054 32.484093,95.031036 32.997810,101.911743 
	C34.547180,102.230476 36.093262,102.804192 37.646492,102.824249 
	C44.752750,102.915977 51.861012,102.852562 59.307514,103.624878 
	C59.445210,105.100288 59.702057,106.575623 59.703087,108.051132 
	C59.725788,140.639175 59.709850,173.227234 59.748016,205.815247 
	C59.750099,207.594162 60.158630,209.372589 60.894260,211.756119 
	C66.659180,211.837738 72.425629,212.030655 78.188332,211.951065 
	C80.822227,211.914688 83.448715,211.341431 86.011284,211.002274 
M320.014618,211.004562 
	C320.014618,211.004562 320.034973,211.071732 320.884399,210.765808 
	C321.012329,209.952057 321.251801,209.138351 321.252167,208.324539 
	C321.271088,164.515182 321.280426,120.705811 321.221069,76.896545 
	C321.219269,75.558289 320.482086,74.221031 319.498779,72.259163 
	C312.188660,72.134865 304.878693,71.996841 297.568298,71.892143 
	C293.994629,71.840942 293.848083,74.150536 293.853821,76.949875 
	C293.942413,120.079758 293.951294,163.209808 294.017822,206.339752 
	C294.020264,207.933716 294.420319,209.527039 295.222443,211.800903 
	C301.035126,211.868271 306.849335,212.038986 312.659821,211.954376 
	C315.138092,211.918304 317.608612,211.348923 320.014618,211.004562 
M284.365021,87.378258 
	C284.601837,86.850052 284.838654,86.321846 285.307617,85.663132 
	C285.391602,85.395142 285.293213,85.177116 285.342529,84.291664 
	C287.219971,77.031776 283.648193,70.640327 276.408813,69.559845 
	C271.705017,68.857788 266.758942,68.862991 262.032959,69.449692 
	C255.644119,70.242828 252.017014,74.926872 251.997391,81.096840 
	C251.976440,87.676163 254.919388,91.771362 260.991547,93.667786 
	C266.044220,93.783234 271.134369,94.317604 276.136688,93.870171 
	C279.601166,93.560287 283.321472,92.371590 284.365021,87.378258 
M256.468018,211.830643 
	C264.232056,211.908493 271.996094,212.019730 279.760040,212.009857 
	C280.493652,212.008926 281.226288,211.247223 282.460663,210.230835 
	C282.347412,207.172668 282.234161,204.114502 282.828430,200.563141 
	C282.848755,182.683167 282.869080,164.803207 283.067627,146.010391 
	C283.100281,134.200287 283.095551,122.389870 283.192383,110.580284 
	C283.216003,107.697151 282.592163,105.642830 279.178894,105.654663 
	C272.699280,105.677116 266.219238,105.692604 259.739868,105.645210 
	C256.641357,105.622543 255.325806,106.860161 255.333771,110.142441 
	C255.405106,139.564987 255.322891,168.987885 255.367233,198.410553 
	C255.373596,202.633942 255.813828,206.856659 256.468018,211.830643 
M256.018982,321.065704 
	C256.016174,319.259857 256.200928,317.430725 255.980194,315.651917 
	C254.512741,303.825836 251.231964,292.836487 239.542511,287.061768 
	C230.796768,282.741241 221.461487,282.558136 211.828705,283.978241 
	C192.035797,286.896179 183.719009,300.125061 183.718994,317.799164 
	C183.718979,320.941071 185.090790,322.313660 188.278473,322.208832 
	C191.770187,322.094025 195.295135,322.012451 198.763321,322.350342 
	C207.752899,323.226013 207.296188,323.220673 209.298721,314.306427 
	C210.869217,307.315308 210.873917,304.671875 218.104523,304.949982 
	C225.153854,305.221069 227.950729,307.375916 229.105606,314.428528 
	C230.284653,321.628754 227.076492,326.634308 218.143478,330.754669 
	C212.290848,333.454224 206.165314,335.560638 200.303024,338.241119 
	C181.975327,346.621368 177.477768,362.190857 182.642807,378.555115 
	C185.268463,386.873993 191.127777,392.807739 199.837158,393.831665 
	C208.724548,394.876465 217.561859,393.273041 222.466644,384.326752 
	C224.574997,380.481140 225.389252,375.945374 227.109375,371.856964 
	C227.704895,370.441498 229.261230,369.430267 230.378708,368.234406 
	C231.072784,369.360474 232.145203,370.410797 232.388763,371.627106 
	C233.071320,375.035614 233.244217,378.545807 233.918564,381.956482 
	C235.906815,392.012573 235.964005,392.055023 246.217438,391.978333 
	C250.666382,391.945068 255.113281,391.639496 259.269012,391.469574 
	C258.367676,382.416992 257.598816,374.695221 256.967804,366.046600 
	C256.979309,352.979675 257.026886,339.912567 256.957916,326.846069 
	C256.949005,325.159485 256.336548,323.476044 256.018982,321.065704 
M95.360291,391.768616 
	C111.609253,391.841949 127.858200,391.930786 144.107224,391.946075 
	C144.989120,391.946899 145.871613,391.332397 147.309540,390.391785 
	C149.395721,390.059418 151.513672,389.860687 153.563019,389.373413 
	C168.750793,385.762299 180.788574,374.243561 179.071030,354.524994 
	C178.116135,343.562195 174.862427,334.207550 164.009018,329.496460 
	C160.732162,328.074097 156.998367,327.722992 153.499710,326.784821 
	C151.921616,326.361633 150.406799,325.702393 148.863281,325.150269 
	C148.956329,324.618927 149.049362,324.087585 149.142410,323.556244 
	C151.247162,322.769257 153.292633,321.700073 155.466766,321.243500 
	C165.543167,319.127502 173.589157,310.997925 174.013306,302.262573 
	C174.244080,297.509491 174.164093,292.703949 173.743103,287.964813 
	C173.011673,279.731110 169.214859,273.087799 162.457886,268.196259 
	C154.323959,262.307953 144.913559,260.306427 135.219513,259.976898 
	C123.246056,259.569885 111.242439,260.093536 99.264000,259.768066 
	C94.667671,259.643188 93.763405,261.271088 93.778595,265.497620 
	C93.922844,305.621124 93.854492,345.745392 93.907547,385.869324 
	C93.909843,387.606354 94.497673,389.342621 95.360291,391.768616 
z"/>
<path fill="#F6922C" opacity="1.000000" stroke="none" 
	d="
M212.064545,202.421875 
	C206.313705,212.454254 196.931091,215.430328 185.478989,212.779541 
	C176.395218,210.676941 169.741577,200.836304 168.916565,190.323151 
	C167.717407,175.042130 174.693939,164.920212 187.923889,158.509216 
	C193.295395,155.906281 198.944901,153.882782 204.378159,151.399307 
	C207.379913,150.027252 210.384201,148.511322 213.054367,146.596054 
	C217.830048,143.170532 218.989548,136.637436 216.314957,130.397888 
	C214.289963,125.673721 210.058029,123.689209 203.789230,125.130058 
	C198.816650,126.272980 198.500412,130.794479 197.154221,135.307556 
	C196.327972,137.717926 196.088776,139.641235 195.780441,142.120468 
	C188.504898,142.120468 181.426102,142.120468 174.347305,142.120468 
	C173.550797,140.034943 172.754288,137.949402 171.928436,135.291199 
	C171.722809,134.384232 171.479614,134.326401 171.169525,134.545044 
	C170.639175,134.660645 170.108826,134.776245 168.861664,134.673386 
	C159.246048,133.231125 150.492294,137.971466 148.877869,144.888382 
	C148.877869,144.888382 148.848328,145.054428 148.659195,145.250763 
	C148.091553,145.977951 147.713043,146.508789 147.334534,147.039642 
	C143.720459,153.518936 141.977554,160.472214 141.718811,168.610336 
	C141.267059,183.239349 141.150482,197.144348 141.033905,211.049362 
	C141.033905,211.049362 141.005035,210.991425 140.563843,211.012665 
	C131.445312,211.019516 122.767982,211.005127 114.060989,210.629913 
	C113.700340,209.184769 113.369347,208.100449 113.038353,207.016113 
	C112.968124,176.317612 112.897888,145.619110 113.177582,114.248970 
	C113.355637,112.386429 113.183762,111.195518 113.011887,110.004608 
	C113.739937,108.673569 114.467987,107.342537 115.991547,105.997665 
	C118.891975,105.973961 120.996872,105.964081 123.101776,105.954208 
	C123.820366,105.890953 124.538963,105.827698 125.836784,106.127739 
	C128.298080,106.304626 130.180130,106.118225 132.062195,105.931824 
	C132.062195,105.931824 131.983810,105.961159 132.144623,106.190613 
	C132.833130,106.610641 133.360840,106.801208 133.888535,106.991776 
	C134.264633,108.714409 134.989517,110.443573 134.957428,112.158562 
	C134.805695,120.264015 134.446213,128.365570 134.164566,136.468643 
	C134.153030,136.801086 134.080322,137.178070 134.203735,137.461227 
	C135.284134,139.940231 136.323380,144.450333 137.524445,144.496887 
	C141.591385,144.654465 139.724442,140.682022 140.202942,138.377640 
	C141.412369,132.553055 141.845306,126.486252 143.724274,120.898109 
	C147.970459,108.269920 156.995117,102.807533 170.630737,104.381805 
	C171.185516,105.142357 171.347443,105.451736 171.509354,105.761116 
	C171.373993,111.408012 171.203598,117.054405 171.122681,122.702080 
	C171.095154,124.622940 171.293060,126.547020 172.391663,128.726852 
	C173.100922,126.712074 173.768646,124.681549 174.526382,122.685173 
	C178.555511,112.069679 186.486740,105.842735 197.467407,104.543068 
	C205.264954,103.620148 213.467484,103.349113 221.140045,104.728981 
	C236.142014,107.426994 242.945602,118.215126 244.090424,137.019867 
	C244.048874,151.206223 244.025314,164.490372 244.089813,177.774078 
	C244.096558,179.162491 244.624298,180.548355 244.910294,181.935410 
	C245.628555,189.608368 246.346817,197.281342 247.041199,205.839630 
	C246.872299,208.105515 246.727295,209.486038 246.558731,211.090759 
	C239.056229,211.090759 231.963318,211.090759 224.870422,211.090759 
	C223.641373,205.037262 222.412109,198.983810 221.183426,192.930237 
	C220.922836,191.646240 220.664474,190.361801 220.040527,188.417114 
	C218.293304,187.921188 215.861572,187.759277 215.692841,188.301559 
	C214.250793,192.935944 213.219040,197.698013 212.064545,202.421875 
M208.685425,190.617142 
	C217.888962,188.904495 220.045853,170.115143 216.239990,159.719604 
	C210.726303,162.782700 205.087067,165.485062 199.924240,168.906326 
	C194.886734,172.244492 192.371567,180.466904 194.234070,185.117584 
	C195.813721,189.062027 202.118042,191.713486 208.685425,190.617142 
z"/>
<path fill="#E64739" opacity="1.000000" stroke="none" 
	d="
M94.812744,391.079224 
	C94.497673,389.342621 93.909843,387.606354 93.907547,385.869324 
	C93.854492,345.745392 93.922844,305.621124 93.778595,265.497620 
	C93.763405,261.271088 94.667671,259.643188 99.264000,259.768066 
	C111.242439,260.093536 123.246056,259.569885 135.219513,259.976898 
	C144.913559,260.306427 154.323959,262.307953 162.457886,268.196259 
	C169.214859,273.087799 173.011673,279.731110 173.743103,287.964813 
	C174.164093,292.703949 174.244080,297.509491 174.013306,302.262573 
	C173.589157,310.997925 165.543167,319.127502 155.466766,321.243500 
	C153.292633,321.700073 151.247162,322.769257 149.142410,323.556244 
	C149.049362,324.087585 148.956329,324.618927 148.863281,325.150269 
	C150.406799,325.702393 151.921616,326.361633 153.499710,326.784821 
	C156.998367,327.722992 160.732162,328.074097 164.009018,329.496460 
	C174.862427,334.207550 178.116135,343.562195 179.071030,354.524994 
	C180.788574,374.243561 168.750793,385.762299 153.563019,389.373413 
	C151.513672,389.860687 149.395721,390.059418 146.583466,390.689209 
	C128.842514,391.017487 111.827629,391.048370 94.812744,391.079224 
M120.330132,367.744049 
	C121.301003,368.772583 122.312523,370.721344 123.236176,370.680511 
	C129.319305,370.411865 135.605118,370.527863 141.397278,368.949463 
	C148.490295,367.016602 151.029373,361.879974 151.077560,353.332916 
	C151.122391,345.382446 147.387207,338.253540 140.513824,336.315308 
	C134.624100,334.654388 128.223724,334.804413 121.194397,334.118835 
	C120.801735,334.886475 120.069794,335.653198 120.067696,336.421875 
	C120.039757,346.633423 120.114197,356.845215 120.330132,367.744049 
M121.640121,315.980713 
	C127.800461,315.284302 134.048523,314.989807 140.073837,313.674774 
	C142.199112,313.210938 144.565079,310.572479 145.464035,308.372375 
	C148.336884,301.341461 148.592758,294.080139 144.405334,287.366913 
	C143.266724,285.541534 141.255905,283.465729 139.329269,283.078796 
	C134.043076,282.017090 128.595566,281.595551 123.195221,281.412567 
	C122.200394,281.378876 120.230843,283.655975 120.236267,284.859619 
	C120.271095,292.583405 120.754234,300.304382 121.037857,308.028198 
	C121.127831,310.478485 121.058342,312.934601 121.640121,315.980713 
z"/>
<path fill="#E5473A" opacity="1.000000" stroke="none" 
	d="
M256.829987,366.973450 
	C257.598816,374.695221 258.367676,382.416992 259.269012,391.469574 
	C255.113281,391.639496 250.666382,391.945068 246.217438,391.978333 
	C235.964005,392.055023 235.906815,392.012573 233.918564,381.956482 
	C233.244217,378.545807 233.071320,375.035614 232.388763,371.627106 
	C232.145203,370.410797 231.072784,369.360474 230.378708,368.234406 
	C229.261230,369.430267 227.704895,370.441498 227.109375,371.856964 
	C225.389252,375.945374 224.574997,380.481140 222.466644,384.326752 
	C217.561859,393.273041 208.724548,394.876465 199.837158,393.831665 
	C191.127777,392.807739 185.268463,386.873993 182.642807,378.555115 
	C177.477768,362.190857 181.975327,346.621368 200.303024,338.241119 
	C206.165314,335.560638 212.290848,333.454224 218.143478,330.754669 
	C227.076492,326.634308 230.284653,321.628754 229.105606,314.428528 
	C227.950729,307.375916 225.153854,305.221069 218.104523,304.949982 
	C210.873917,304.671875 210.869217,307.315308 209.298721,314.306427 
	C207.296188,323.220673 207.752899,323.226013 198.763321,322.350342 
	C195.295135,322.012451 191.770187,322.094025 188.278473,322.208832 
	C185.090790,322.313660 183.718979,320.941071 183.718994,317.799164 
	C183.719009,300.125061 192.035797,286.896179 211.828705,283.978241 
	C221.461487,282.558136 230.796768,282.741241 239.542511,287.061768 
	C251.231964,292.836487 254.512741,303.825836 255.980194,315.651917 
	C256.200928,317.430725 256.016174,319.259857 255.941833,321.908264 
	C255.901398,335.935944 255.910217,349.121338 256.011871,362.306000 
	C256.023895,363.863831 256.544922,365.417725 256.829987,366.973450 
M229.615402,350.500824 
	C229.615738,348.507843 229.584061,346.514191 229.623611,344.522003 
	C229.688980,341.230103 227.813034,340.093811 225.191238,341.451416 
	C219.858322,344.212921 214.615738,347.211456 209.619141,350.537750 
	C206.351593,352.713013 204.563248,359.831482 205.758972,363.305511 
	C207.643250,368.779938 210.961945,371.432434 216.133179,371.597076 
	C220.954880,371.750641 225.435959,369.061920 227.173737,363.945984 
	C228.527390,359.960815 228.839050,355.621735 229.615402,350.500824 
z"/>
<path fill="#F6922C" opacity="1.000000" stroke="none" 
	d="
M358.759003,212.993896 
	C348.141144,212.067169 341.255371,205.629852 336.319977,196.994827 
	C327.892670,182.250336 326.776550,166.022675 328.642822,149.652466 
	C329.569000,141.528549 331.533051,133.318253 334.394348,125.657516 
	C343.443970,101.428612 376.086914,94.876038 393.456573,113.929100 
	C399.692596,120.769493 402.912415,129.478928 402.528290,139.323853 
	C402.314240,144.809067 403.560394,150.354889 404.193207,155.868286 
	C404.627289,159.650482 403.259064,161.083008 399.209198,161.195190 
	C385.848633,161.565277 372.494141,162.285721 359.156525,163.163406 
	C357.726440,163.257507 355.135773,165.443207 355.263123,166.353821 
	C356.279083,173.618393 355.610016,181.206696 359.830383,187.915237 
	C362.875854,192.756210 367.032684,194.290726 372.085114,193.069366 
	C377.338318,191.799484 379.042664,187.151932 379.830170,182.443710 
	C381.000183,175.448837 381.219757,175.241440 388.171570,176.208771 
	C391.775299,176.710205 395.452087,176.723831 399.099487,176.865250 
	C404.472412,177.073563 406.117432,179.254303 404.903961,184.567184 
	C404.248962,187.435043 403.723785,190.332565 402.785431,193.819565 
	C401.972534,195.471222 401.514282,196.520020 401.056030,197.568817 
	C400.920471,197.794571 400.784943,198.020309 400.089905,198.630096 
	C399.369202,199.692047 399.208069,200.369934 399.046936,201.047836 
	C399.046936,201.047836 398.999695,201.001984 398.688843,200.907745 
	C397.942627,201.580399 397.507263,202.347290 397.071869,203.114182 
	C397.071869,203.114182 397.008759,203.036835 396.755188,203.057281 
	C396.356659,203.419693 396.211700,203.761658 396.066772,204.103622 
	C396.066772,204.103622 396.017944,204.018509 395.760376,204.048279 
	C395.357422,204.419922 395.212036,204.761795 395.066650,205.103668 
	C395.066650,205.103668 395.018402,205.018494 394.761169,205.049133 
	C394.358673,205.421036 394.213379,205.762314 394.068085,206.103592 
	C394.068085,206.103592 394.018127,206.015732 393.753662,206.041443 
	C393.353210,206.411362 393.217194,206.755554 393.081207,207.099762 
	C393.081207,207.099762 393.035370,206.992096 392.701172,206.976379 
	C391.925873,207.657242 391.484772,208.353806 391.043671,209.050354 
	C391.043671,209.050354 391.000000,209.001221 390.673309,208.804367 
	C386.526825,210.326813 382.707001,212.046127 378.887207,213.765442 
	C378.194763,213.846878 377.502289,213.928314 376.193970,213.627350 
	C369.971710,213.161285 364.365356,213.077591 358.759003,212.993896 
M368.456879,149.730560 
	C370.946625,149.739471 373.472015,149.997162 375.910522,149.648132 
	C377.059784,149.483612 378.944641,148.168808 378.957825,147.350510 
	C379.064362,140.721313 379.087067,134.006332 374.511780,128.462112 
	C370.567688,123.682800 363.933167,123.261681 360.737854,128.392593 
	C358.279755,132.339752 356.678131,137.256744 356.192841,141.898972 
	C355.357605,149.888931 355.846954,149.941803 364.001129,149.872589 
	C365.163422,149.862717 366.325531,149.826874 368.456879,149.730560 
z"/>
<path fill="#E54739" opacity="1.000000" stroke="none" 
	d="
M366.322632,344.059540 
	C365.890869,353.400177 366.370758,362.719208 372.235168,370.442169 
	C376.649658,376.255707 385.518158,374.757507 388.737396,368.146576 
	C389.528198,366.522675 390.019501,364.719086 390.423767,362.946808 
	C392.014832,355.971649 391.983032,355.941620 398.845825,356.385468 
	C403.315765,356.674591 407.827179,356.770874 412.221039,357.527954 
	C413.633118,357.771271 415.891510,359.949524 415.794128,361.071716 
	C414.501862,375.965576 408.378540,390.307251 389.654999,392.929596 
	C383.062775,393.852844 376.111176,394.705383 369.656158,393.617432 
	C353.938660,390.968445 345.559998,379.917358 342.134491,365.245850 
	C338.019867,347.622803 337.697205,329.985809 342.680084,312.183868 
	C349.158081,289.040649 368.782074,277.662140 391.406342,285.407471 
	C402.931244,289.352997 409.114990,298.640015 412.007965,309.868713 
	C413.792114,316.793518 414.068542,324.106750 414.596375,331.773132 
	C413.557220,335.075165 412.943542,337.849701 412.342194,340.568604 
	C406.782043,341.011475 401.381683,341.441589 395.513794,341.867065 
	C386.217346,341.974457 377.387177,342.041565 368.561523,342.278015 
	C367.799866,342.298401 367.068207,343.439209 366.322632,344.059540 
M389.783722,328.067596 
	C389.070038,322.701721 388.905151,317.184875 387.482635,312.013977 
	C386.157013,307.195343 380.313751,304.148407 375.618317,305.151489 
	C370.810028,306.178711 368.979126,310.035492 368.171051,314.450592 
	C367.699158,317.028809 367.529327,319.665222 367.002045,322.229919 
	C365.385651,330.091858 365.347595,330.217407 372.957672,330.015930 
	C378.474579,329.869843 383.980469,329.308929 389.783722,328.067596 
z"/>
<path fill="#E5483A" opacity="1.000000" stroke="none" 
	d="
M323.396362,388.000336 
	C317.833069,391.840912 312.051270,394.789429 304.909515,394.049347 
	C296.771667,393.206085 288.375153,393.656708 280.495392,391.815002 
	C269.434448,389.229675 260.688141,374.636139 262.115875,363.415131 
	C262.537964,360.097687 263.854614,357.967255 267.738647,357.813873 
	C273.205170,357.598053 278.651917,356.885284 284.107666,356.390900 
	C288.191986,356.020782 288.102112,358.737976 288.098389,361.601562 
	C288.089233,368.670227 291.284149,373.116913 297.215942,374.538513 
	C301.793671,375.635620 307.285065,373.544189 309.491119,369.863434 
	C312.126404,365.466492 311.841858,359.336609 307.710968,356.200562 
	C303.020844,352.640015 297.537415,350.120270 292.381592,347.178375 
	C286.403320,343.767212 280.024536,340.913330 274.495941,336.888458 
	C262.615631,328.239655 260.952972,318.562561 263.364044,305.076019 
	C265.560333,292.790802 274.981140,286.948456 286.363800,284.289490 
	C295.230988,282.218140 304.213440,282.595795 312.962128,285.200836 
	C325.172333,288.836548 335.033722,299.942444 334.027191,311.969208 
	C333.909943,313.370270 332.585571,315.580902 331.465424,315.832214 
	C326.182129,317.017670 320.779633,317.682098 315.410431,318.469727 
	C312.416809,318.908875 310.959778,317.814484 310.452911,314.528595 
	C309.160461,306.149658 300.567596,301.296143 292.764374,304.196442 
	C289.102539,305.557465 286.618439,311.383545 289.100800,315.089417 
	C291.390930,318.508331 294.772095,321.551361 298.313416,323.707855 
	C307.380737,329.229523 316.935120,333.947479 326.049133,339.397491 
	C335.144012,344.836090 336.989349,354.159485 337.797913,364.158142 
	C337.619720,364.570190 337.548004,364.815857 337.548004,364.815857 
	C337.438751,364.948547 337.329529,365.081207 336.812988,365.601929 
	C335.613708,369.680298 334.821808,373.370575 334.029907,377.060852 
	C334.029907,377.060852 334.004181,377.002441 333.683350,377.048584 
	C333.255066,377.750092 333.147644,378.405487 333.040222,379.060852 
	C333.040253,379.060852 333.004608,379.002686 332.670593,378.960144 
	C331.904510,379.965485 331.472443,381.013336 331.040375,382.061218 
	C331.040375,382.061218 331.004211,382.003632 330.716370,381.983337 
	C330.296387,382.333130 330.164276,382.703186 330.032166,383.073242 
	C330.032196,383.073242 330.007629,383.007599 329.728363,383.002380 
	C329.308685,383.356201 329.168274,383.715302 329.027893,384.074402 
	C329.027893,384.074402 329.007965,384.008362 328.734863,384.017090 
	C328.312683,384.373199 328.163605,384.720581 328.014526,385.067963 
	C328.014526,385.067963 328.003479,385.004456 327.697571,384.964050 
	C326.603271,385.655762 325.814880,386.387878 325.026489,387.119995 
	C325.026520,387.119995 325.030487,387.040985 324.798279,387.048767 
	C324.176147,387.371185 323.786255,387.685760 323.396362,388.000336 
z"/>
<path fill="#F7922B" opacity="1.000000" stroke="none" 
	d="
M60.377968,211.151245 
	C60.158630,209.372589 59.750099,207.594162 59.748016,205.815247 
	C59.709850,173.227234 59.725788,140.639175 59.703087,108.051132 
	C59.702057,106.575623 59.445210,105.100288 59.035042,102.853653 
	C57.565922,101.729881 56.371422,101.081726 55.172272,101.072998 
	C47.676346,101.018494 40.179379,101.106781 32.682758,101.147781 
	C32.484093,95.031036 32.170834,88.915054 32.129539,82.797241 
	C32.104588,79.100693 35.111942,79.926445 37.280193,79.926445 
	C58.586544,79.926392 79.892891,79.985428 101.199257,80.019981 
	C104.858696,80.025917 108.518211,79.995483 112.605469,80.575073 
	C113.033249,87.706421 113.033249,94.244537 113.033249,101.021461 
	C106.638695,101.021461 101.179497,100.903595 95.728668,101.066360 
	C92.538712,101.161629 89.362114,101.704613 86.102844,102.506180 
	C86.025223,139.000488 86.024269,175.034805 86.023315,211.069122 
	C86.023315,211.069122 86.011284,211.002274 85.571335,211.000076 
	C76.880249,211.048996 68.629105,211.100128 60.377968,211.151245 
z"/>
<path fill="#F7932D" opacity="1.000000" stroke="none" 
	d="
M448.366241,142.963501 
	C445.927399,148.386810 443.488556,153.810120 441.050873,160.047958 
	C441.078766,161.421997 441.105530,161.981537 441.132294,162.541061 
	C441.132294,162.541061 441.077789,162.595642 440.790588,162.773407 
	C440.321014,163.305618 440.138611,163.660065 439.981689,164.013794 
	C440.007202,164.013046 440.010376,163.962296 439.759705,164.292572 
	C439.348480,166.439835 439.055756,168.256287 439.048370,170.073914 
	C438.992981,183.735489 438.993835,197.397293 438.511658,211.031952 
	C429.413727,211.037292 420.781219,211.069733 412.148712,211.102173 
	C411.806610,209.397263 411.169464,207.692917 411.166229,205.987366 
	C411.106201,174.430557 411.201141,142.873169 411.033630,111.317139 
	C411.009216,106.726318 412.407959,104.897011 417.025513,105.343422 
	C421.898834,105.814560 426.804138,105.954422 431.804932,107.044693 
	C431.994476,116.846138 431.894745,125.849098 432.254059,134.833710 
	C432.376709,137.900467 433.652405,140.921112 434.401245,143.962830 
	C438.758881,145.405502 438.699677,142.299454 438.724884,139.597122 
	C438.800049,131.549286 439.843781,123.742668 443.761414,116.541046 
	C448.457184,107.908882 455.615540,103.427727 465.526917,103.422333 
	C468.819824,103.420547 470.637482,104.588730 469.628326,108.871796 
	C468.764954,117.837959 468.261658,126.111908 467.754211,134.453751 
	C466.108398,134.303513 464.644165,134.081314 463.176025,134.051208 
	C456.921722,133.922958 450.155792,138.022003 448.366241,142.963501 
z"/>
<path fill="#F7922A" opacity="1.000000" stroke="none" 
	d="
M294.635071,211.120636 
	C294.420319,209.527039 294.020264,207.933716 294.017822,206.339752 
	C293.951294,163.209808 293.942413,120.079758 293.853821,76.949875 
	C293.848083,74.150536 293.994629,71.840942 297.568298,71.892143 
	C304.878693,71.996841 312.188660,72.134865 319.776917,73.048454 
	C320.048340,119.582405 320.041656,165.327072 320.034973,211.071732 
	C320.034973,211.071732 320.014618,211.004562 319.575287,210.989410 
	C310.968994,211.023056 302.802032,211.071838 294.635071,211.120636 
z"/>
<path fill="#F6922B" opacity="1.000000" stroke="none" 
	d="
M282.120911,201.056335 
	C282.234161,204.114502 282.347412,207.172668 281.748230,210.591232 
	C272.708282,210.994324 264.380798,211.037018 256.053284,211.079712 
	C255.813828,206.856659 255.373596,202.633942 255.367233,198.410553 
	C255.322891,168.987885 255.405106,139.564987 255.333771,110.142441 
	C255.325806,106.860161 256.641357,105.622543 259.739868,105.645210 
	C266.219238,105.692604 272.699280,105.677116 279.178894,105.654663 
	C282.592163,105.642830 283.216003,107.697151 283.192383,110.580284 
	C283.095551,122.389870 283.100281,134.200287 282.652710,146.746796 
	C282.198792,165.340912 282.159851,183.198624 282.120911,201.056335 
z"/>
<path fill="#F7932D" opacity="1.000000" stroke="none" 
	d="
M260.620270,93.095924 
	C254.919388,91.771362 251.976440,87.676163 251.997391,81.096840 
	C252.017014,74.926872 255.644119,70.242828 262.032959,69.449692 
	C266.758942,68.862991 271.705017,68.857788 276.408813,69.559845 
	C283.648193,70.640327 287.219971,77.031776 285.242218,84.842377 
	C285.141907,85.393097 285.075500,85.793640 285.075500,85.793640 
	C284.838654,86.321846 284.601837,86.850052 283.821350,87.712570 
	C279.104492,91.960564 274.212738,93.585114 268.482025,93.035957 
	C265.887177,92.787308 263.242401,93.059837 260.620270,93.095924 
z"/>
<path fill="#614432" opacity="1.000000" stroke="none" 
	d="
M320.459686,210.918762 
	C320.041656,165.327072 320.048340,119.582405 320.071381,73.360527 
	C320.482086,74.221031 321.219269,75.558289 321.221069,76.896545 
	C321.280426,120.705811 321.271088,164.515182 321.252167,208.324539 
	C321.251801,209.138351 321.012329,209.952057 320.459686,210.918762 
z"/>
<path fill="#614432" opacity="1.000000" stroke="none" 
	d="
M86.413315,210.866409 
	C86.024269,175.034805 86.025223,139.000488 86.324554,102.644302 
	C86.808014,102.617401 86.993095,102.912361 87.178177,103.207314 
	C87.116142,129.032928 87.064720,154.858582 86.986740,180.684143 
	C86.956566,190.677414 86.866241,200.670517 86.413315,210.866409 
z"/>
<path fill="#856751" opacity="1.000000" stroke="none" 
	d="
M87.623840,103.075096 
	C86.993095,102.912361 86.808014,102.617401 86.401222,102.184311 
	C89.362114,101.704613 92.538712,101.161629 95.728668,101.066360 
	C101.179497,100.903595 106.638695,101.021461 113.033249,101.021461 
	C113.033249,94.244537 113.033249,87.706421 113.060631,80.719551 
	C113.533997,81.534325 114.324348,82.786980 114.364632,84.063316 
	C114.515594,88.846954 114.285789,93.643394 114.464531,98.425102 
	C114.594658,101.906181 113.189644,103.031265 109.777870,102.944946 
	C102.546356,102.762009 95.306145,102.922951 87.623840,103.075096 
z"/>
<path fill="#5F514E" opacity="1.000000" stroke="none" 
	d="
M448.663818,142.868073 
	C450.155792,138.022003 456.921722,133.922958 463.176025,134.051208 
	C464.644165,134.081314 466.108398,134.303513 467.754211,134.453751 
	C468.261658,126.111908 468.764954,117.837959 469.568909,109.279724 
	C469.882721,116.610451 469.918243,124.225548 469.895447,131.840454 
	C469.888458,134.177002 469.397400,136.399323 466.322754,135.945206 
	C459.186218,134.891113 453.911774,138.373993 448.663818,142.868073 
z"/>
<path fill="#5F514E" opacity="1.000000" stroke="none" 
	d="
M366.766602,344.050598 
	C367.068207,343.439209 367.799866,342.298401 368.561523,342.278015 
	C377.387177,342.041565 386.217346,341.974457 395.938843,341.910645 
	C399.507538,342.148193 402.183777,342.337494 404.859985,342.526825 
	C392.310181,343.031769 379.760406,343.536713 366.766602,344.050598 
z"/>
<path fill="#3F4354" opacity="1.000000" stroke="none" 
	d="
M282.474670,200.809738 
	C282.159851,183.198624 282.198792,165.340912 282.563599,147.203217 
	C282.869080,164.803207 282.848755,182.683167 282.474670,200.809738 
z"/>
<path fill="#79767C" opacity="1.000000" stroke="none" 
	d="
M95.086517,391.423920 
	C111.827629,391.048370 128.842514,391.017487 146.305634,390.995483 
	C145.871613,391.332397 144.989120,391.946899 144.107224,391.946075 
	C127.858200,391.930786 111.609253,391.841949 95.086517,391.423920 
z"/>
<path fill="#856751" opacity="1.000000" stroke="none" 
	d="
M32.840286,101.529762 
	C40.179379,101.106781 47.676346,101.018494 55.172272,101.072998 
	C56.371422,101.081726 57.565922,101.729881 58.865562,102.463646 
	C51.861012,102.852562 44.752750,102.915977 37.646492,102.824249 
	C36.093262,102.804192 34.547180,102.230476 32.840286,101.529762 
z"/>
<path fill="#856751" opacity="1.000000" stroke="none" 
	d="
M434.327057,143.502930 
	C433.652405,140.921112 432.376709,137.900467 432.254059,134.833710 
	C431.894745,125.849098 431.994476,116.846138 431.960754,107.376541 
	C432.462158,110.947578 433.111176,114.981934 433.331055,119.039536 
	C433.764252,127.033890 433.959320,135.041138 434.327057,143.502930 
z"/>
<path fill="#614432" opacity="1.000000" stroke="none" 
	d="
M438.977081,211.059036 
	C438.993835,197.397293 438.992981,183.735489 439.048370,170.073914 
	C439.055756,168.256287 439.348480,166.439835 439.766479,164.763489 
	C440.031372,180.292511 440.038879,195.680847 440.046387,211.069199 
	C439.928131,211.335571 439.743164,211.542267 439.232666,211.536453 
	C438.973816,211.383636 438.977081,211.059036 438.977081,211.059036 
z"/>
<path fill="none" opacity="1.000000" stroke="none" 
	d="
M440.372314,210.791519 
	C440.038879,195.680847 440.031372,180.292511 440.017120,164.433228 
	C440.010376,163.962296 440.007202,164.013046 440.253906,164.032104 
	C440.680054,164.021820 440.859558,163.992493 441.039001,163.963181 
	C440.925446,179.480072 440.811890,194.996948 440.372314,210.791519 
z"/>
<path fill="none" opacity="1.000000" stroke="none" 
	d="
M256.898895,366.510010 
	C256.544922,365.417725 256.023895,363.863831 256.011871,362.306000 
	C255.910217,349.121338 255.901398,335.935944 255.934204,322.270996 
	C256.336548,323.476044 256.949005,325.159485 256.957916,326.846069 
	C257.026886,339.912567 256.979309,352.979675 256.898895,366.510010 
z"/>
<path fill="none" opacity="1.000000" stroke="none" 
	d="
M244.972641,181.474335 
	C244.624298,180.548355 244.096558,179.162491 244.089813,177.774078 
	C244.025314,164.490372 244.048874,151.206223 244.068756,137.453690 
	C244.422241,138.514160 245.034958,140.041885 245.041931,141.572357 
	C245.101715,154.719040 245.052002,167.866211 244.972641,181.474335 
z"/>
<path fill="none" opacity="1.000000" stroke="none" 
	d="
M260.805908,93.381851 
	C263.242401,93.059837 265.887177,92.787308 268.482025,93.035957 
	C274.212738,93.585114 279.104492,91.960564 283.613464,87.935120 
	C283.321472,92.371590 279.601166,93.560287 276.136688,93.870171 
	C271.134369,94.317604 266.044220,93.783234 260.805908,93.381851 
z"/>
<path fill="#5F514E" opacity="1.000000" stroke="none" 
	d="
M149.213013,144.814041 
	C150.492294,137.971466 159.246048,133.231125 168.451050,134.661545 
	C167.041519,135.254532 165.343933,135.803635 163.606705,135.997864 
	C157.504318,136.680130 152.976730,139.804016 149.213013,144.814041 
z"/>
<path fill="#856751" opacity="1.000000" stroke="none" 
	d="
M405.296906,342.601196 
	C402.183777,342.337494 399.507538,342.148193 396.406311,341.915314 
	C401.381683,341.441589 406.782043,341.011475 412.342194,340.568604 
	C412.943542,337.849701 413.557220,335.075165 414.540405,332.214539 
	C414.935394,332.290863 414.976715,332.452667 414.983917,332.615936 
	C415.416931,342.403870 415.416656,342.403870 405.296906,342.601196 
z"/>
<path fill="none" opacity="1.000000" stroke="none" 
	d="
M141.401489,210.820496 
	C141.150482,197.144348 141.267059,183.239349 141.722748,169.042725 
	C141.964279,182.697968 141.866669,196.644791 141.401489,210.820496 
z"/>
<path fill="#5F514E" opacity="1.000000" stroke="none" 
	d="
M212.382660,202.227661 
	C213.219040,197.698013 214.250793,192.935944 215.692841,188.301559 
	C215.861572,187.759277 218.293304,187.921188 219.785980,188.065002 
	C218.634628,189.714142 216.949142,190.854889 216.202286,192.438354 
	C214.755875,195.505005 213.837814,198.820877 212.382660,202.227661 
z"/>
<path fill="none" opacity="1.000000" stroke="none" 
	d="
M174.636688,142.366852 
	C181.426102,142.120468 188.504898,142.120468 195.780441,142.120468 
	C196.088776,139.641235 196.327972,137.717926 196.839935,135.551941 
	C197.112717,137.766647 197.112717,140.223999 197.112717,142.613220 
	C189.404709,142.613220 182.165390,142.613220 174.636688,142.366852 
z"/>
<path fill="#5F514E" opacity="1.000000" stroke="none" 
	d="
M358.971985,213.358582 
	C364.365356,213.077591 369.971710,213.161285 375.844971,213.586761 
	C370.469543,213.860138 364.827271,213.791702 358.971985,213.358582 
z"/>
<path fill="#2A2E40" opacity="1.000000" stroke="none" 
	d="
M225.113251,211.455994 
	C231.963318,211.090759 239.056229,211.090759 246.558731,211.090759 
	C246.727295,209.486038 246.872299,208.105515 246.995087,206.265076 
	C247.449646,207.614105 247.926453,209.423050 248.558578,211.821243 
	C240.303207,211.821243 232.829651,211.821243 225.113251,211.455994 
z"/>
<path fill="#2A2E40" opacity="1.000000" stroke="none" 
	d="
M438.511658,211.031952 
	C438.977081,211.059036 438.973816,211.383636 439.021973,211.538498 
	C430.247681,211.729294 421.425201,211.765213 412.375732,211.451660 
	C420.781219,211.069733 429.413727,211.037292 438.511658,211.031952 
z"/>
<path fill="#2A2E40" opacity="1.000000" stroke="none" 
	d="
M114.090652,210.990738 
	C122.767982,211.005127 131.445312,211.019516 140.595245,211.004791 
	C138.919754,211.316895 136.774979,211.923248 134.622971,211.950089 
	C127.881653,212.034195 121.137611,211.899780 114.143387,211.552307 
	C113.892151,211.254608 114.090652,210.990738 114.090652,210.990738 
z"/>
<path fill="#2A2E40" opacity="1.000000" stroke="none" 
	d="
M60.636116,211.453674 
	C68.629105,211.100128 76.880249,211.048996 85.604973,211.004761 
	C83.448715,211.341431 80.822227,211.914688 78.188332,211.951065 
	C72.425629,212.030655 66.659180,211.837738 60.636116,211.453674 
z"/>
<path fill="#2A2E40" opacity="1.000000" stroke="none" 
	d="
M256.260651,211.455170 
	C264.380798,211.037018 272.708282,210.994324 281.497559,210.895172 
	C281.226288,211.247223 280.493652,212.008926 279.760040,212.009857 
	C271.996094,212.019730 264.232056,211.908493 256.260651,211.455170 
z"/>
<path fill="#2A2E40" opacity="1.000000" stroke="none" 
	d="
M294.928772,211.460770 
	C302.802032,211.071838 310.968994,211.023056 319.609314,210.998077 
	C317.608612,211.348923 315.138092,211.918304 312.659821,211.954376 
	C306.849335,212.038986 301.035126,211.868271 294.928772,211.460770 
z"/>
<path fill="#5F514E" opacity="1.000000" stroke="none" 
	d="
M379.282043,213.786041 
	C382.707001,212.046127 386.526825,210.326813 390.695068,208.827728 
	C387.254669,210.634155 383.465790,212.220398 379.282043,213.786041 
z"/>
<path fill="#3F4354" opacity="1.000000" stroke="none" 
	d="
M334.365845,376.894043 
	C334.821808,373.370575 335.613708,369.680298 336.634766,365.788147 
	C336.143219,369.299927 335.422516,373.013611 334.365845,376.894043 
z"/>
<path fill="#F6932C" opacity="1.000000" stroke="none" 
	d="
M131.771301,105.733749 
	C130.180130,106.118225 128.298080,106.304626 126.190796,106.207870 
	C127.803856,105.795036 129.642120,105.665359 131.771301,105.733749 
z"/>
<path fill="#F6932C" opacity="1.000000" stroke="none" 
	d="
M114.060989,210.629913 
	C114.090652,210.990738 113.892151,211.254608 113.728600,211.259003 
	C113.259689,209.982544 112.954330,208.701675 112.843658,207.218460 
	C113.369347,208.100449 113.700340,209.184769 114.060989,210.629913 
z"/>
<path fill="#F6932C" opacity="1.000000" stroke="none" 
	d="
M112.792877,110.226944 
	C113.183762,111.195518 113.355637,112.386429 113.267456,113.787018 
	C112.862885,112.814224 112.718369,111.631752 112.792877,110.226944 
z"/>
<path fill="#F6932C" opacity="1.000000" stroke="none" 
	d="
M122.784912,105.758530 
	C120.996872,105.964081 118.891975,105.973961 116.335342,105.966110 
	C118.078423,105.819885 120.273232,105.691376 122.784912,105.758530 
z"/>
<path fill="#5F514E" opacity="1.000000" stroke="none" 
	d="
M401.265747,197.603058 
	C401.514282,196.520020 401.972534,195.471222 402.585358,194.189163 
	C402.318451,195.183029 401.896973,196.410156 401.265747,197.603058 
z"/>
<path fill="#3F4354" opacity="1.000000" stroke="none" 
	d="
M331.357330,381.975677 
	C331.472443,381.013336 331.904510,379.965485 332.702209,378.972931 
	C332.603333,379.982208 332.138794,380.936188 331.357330,381.975677 
z"/>
<path fill="#5F514E" opacity="1.000000" stroke="none" 
	d="
M391.398529,209.046906 
	C391.484772,208.353806 391.925873,207.657242 392.737122,207.022675 
	C392.655975,207.737610 392.204681,208.390533 391.398529,209.046906 
z"/>
<path fill="#3F4354" opacity="1.000000" stroke="none" 
	d="
M325.340240,387.302704 
	C325.814880,386.387878 326.603271,385.655762 327.728088,384.974304 
	C327.261047,385.845123 326.457520,386.665283 325.340240,387.302704 
z"/>
<path fill="#5F514E" opacity="1.000000" stroke="none" 
	d="
M147.567505,146.929749 
	C147.713043,146.508789 148.091553,145.977951 148.575577,145.239868 
	C148.387558,145.628387 148.094009,146.224136 147.567505,146.929749 
z"/>
<path fill="#5F514E" opacity="1.000000" stroke="none" 
	d="
M397.398865,203.298340 
	C397.507263,202.347290 397.942627,201.580399 398.717957,200.922974 
	C398.613831,201.849152 398.169830,202.665833 397.398865,203.298340 
z"/>
<path fill="#5F514E" opacity="1.000000" stroke="none" 
	d="
M399.333191,200.986450 
	C399.208069,200.369934 399.369202,199.692047 399.814941,198.913635 
	C399.939514,199.517105 399.779480,200.221100 399.333191,200.986450 
z"/>
<path fill="#F6932C" opacity="1.000000" stroke="none" 
	d="
M133.833557,106.681732 
	C133.360840,106.801208 132.833130,106.610641 132.174637,106.161377 
	C132.622086,106.059021 133.200348,106.215355 133.833557,106.681732 
z"/>
<path fill="#3F4354" opacity="1.000000" stroke="none" 
	d="
M323.720032,388.084778 
	C323.786255,387.685760 324.176147,387.371185 324.836548,387.058716 
	C324.752594,387.430267 324.398132,387.799713 323.720032,388.084778 
z"/>
<path fill="#F6932C" opacity="1.000000" stroke="none" 
	d="
M171.548035,105.559982 
	C171.347443,105.451736 171.185516,105.142357 171.016571,104.646881 
	C171.201920,104.760139 171.394318,105.059494 171.548035,105.559982 
z"/>
<path fill="#3F4354" opacity="1.000000" stroke="none" 
	d="
M333.343262,378.952209 
	C333.147644,378.405487 333.255066,377.750092 333.715210,377.050049 
	C333.927399,377.618103 333.786835,378.230835 333.343262,378.952209 
z"/>
<path fill="none" opacity="1.000000" stroke="none" 
	d="
M441.365784,162.331696 
	C441.105530,161.981537 441.078766,161.421997 441.104431,160.447571 
	C441.304321,160.729233 441.451782,161.425766 441.365784,162.331696 
z"/>
<path fill="#F6932C" opacity="1.000000" stroke="none" 
	d="
M171.360443,134.682480 
	C171.479614,134.326401 171.722809,134.384232 171.936813,134.872055 
	C171.974518,135.025574 171.551361,134.819916 171.360443,134.682480 
z"/>
<path fill="#3F4354" opacity="1.000000" stroke="none" 
	d="
M337.596802,364.802979 
	C337.548004,364.815857 337.619720,364.570190 337.687775,364.601318 
	C337.755829,364.632477 337.645599,364.790070 337.596802,364.802979 
z"/>
<path fill="#5F514E" opacity="1.000000" stroke="none" 
	d="
M395.435852,205.231415 
	C395.212036,204.761795 395.357422,204.419922 395.803162,204.072357 
	C396.003998,204.497498 395.904541,204.928329 395.435852,205.231415 
z"/>
<path fill="#5F514E" opacity="1.000000" stroke="none" 
	d="
M396.434753,204.231812 
	C396.211700,203.761658 396.356659,203.419693 396.802185,203.074188 
	C397.002716,203.500427 396.902710,203.930222 396.434753,204.231812 
z"/>
<path fill="#3F4354" opacity="1.000000" stroke="none" 
	d="
M330.316803,383.045593 
	C330.164276,382.703186 330.296387,382.333130 330.748413,381.994629 
	C330.912720,382.356781 330.757080,382.687347 330.316803,383.045593 
z"/>
<path fill="#3F4354" opacity="1.000000" stroke="none" 
	d="
M329.320496,384.055756 
	C329.168274,383.715302 329.308685,383.356201 329.761292,383.014313 
	C329.920044,383.366699 329.766571,383.701904 329.320496,384.055756 
z"/>
<path fill="#3F4354" opacity="1.000000" stroke="none" 
	d="
M328.300476,385.029785 
	C328.163605,384.720581 328.312683,384.373199 328.767975,384.026794 
	C328.911560,384.349060 328.748962,384.670349 328.300476,385.029785 
z"/>
<path fill="#5F514E" opacity="1.000000" stroke="none" 
	d="
M394.437317,206.230865 
	C394.213379,205.762314 394.358673,205.421036 394.803833,205.073120 
	C395.004669,205.497025 394.905640,205.927567 394.437317,206.230865 
z"/>
<path fill="#5F514E" opacity="1.000000" stroke="none" 
	d="
M285.191559,85.728386 
	C285.075500,85.793640 285.141907,85.393097 285.077209,85.201080 
	C285.293213,85.177116 285.391602,85.395142 285.191559,85.728386 
z"/>
<path fill="#5F514E" opacity="1.000000" stroke="none" 
	d="
M393.445312,207.216995 
	C393.217194,206.755554 393.353210,206.411362 393.796387,206.068451 
	C394.005493,206.491257 393.907471,206.912735 393.445312,207.216995 
z"/>
<path fill="#614432" opacity="1.000000" stroke="none" 
	d="
M441.069763,163.614014 
	C440.859558,163.992493 440.680054,164.021820 440.228394,164.032837 
	C440.138611,163.660065 440.321014,163.305618 440.754150,162.760773 
	C441.036743,162.801849 441.068604,163.033356 441.069763,163.614014 
z"/>
<path fill="none" opacity="1.000000" stroke="none" 
	d="
M208.294556,190.741943 
	C202.118042,191.713486 195.813721,189.062027 194.234070,185.117584 
	C192.371567,180.466904 194.886734,172.244492 199.924240,168.906326 
	C205.087067,165.485062 210.726303,162.782700 216.239990,159.719604 
	C220.045853,170.115143 217.888962,188.904495 208.294556,190.741943 
z"/>
<path fill="none" opacity="1.000000" stroke="none" 
	d="
M122.049194,334.153564 
	C128.223724,334.804413 134.624100,334.654388 140.513824,336.315308 
	C147.387207,338.253540 151.122391,345.382446 151.077560,353.332916 
	C151.029373,361.879974 148.490295,367.016602 141.397278,368.949463 
	C135.605118,370.527863 129.319305,370.411865 123.236176,370.680511 
	C122.312523,370.721344 121.301003,368.772583 120.607849,367.164124 
	C120.949715,357.503021 120.965744,348.420990 121.120239,339.341339 
	C121.149742,337.607300 121.725471,335.882568 122.049194,334.153564 
z"/>
<path fill="none" opacity="1.000000" stroke="none" 
	d="
M121.350975,315.684387 
	C121.058342,312.934601 121.127831,310.478485 121.037857,308.028198 
	C120.754234,300.304382 120.271095,292.583405 120.236267,284.859619 
	C120.230843,283.655975 122.200394,281.378876 123.195221,281.412567 
	C128.595566,281.595551 134.043076,282.017090 139.329269,283.078796 
	C141.255905,283.465729 143.266724,285.541534 144.405334,287.366913 
	C148.592758,294.080139 148.336884,301.341461 145.464035,308.372375 
	C144.565079,310.572479 142.199112,313.210938 140.073837,313.674774 
	C134.048523,314.989807 127.800461,315.284302 121.350975,315.684387 
z"/>
<path fill="#3F4354" opacity="1.000000" stroke="none" 
	d="
M121.621796,334.136200 
	C121.725471,335.882568 121.149742,337.607300 121.120239,339.341339 
	C120.965744,348.420990 120.949715,357.503021 120.524330,366.820618 
	C120.114197,356.845215 120.039757,346.633423 120.067696,336.421875 
	C120.069794,335.653198 120.801735,334.886475 121.621796,334.136200 
z"/>
<path fill="none" opacity="1.000000" stroke="none" 
	d="
M229.614594,350.970398 
	C228.839050,355.621735 228.527390,359.960815 227.173737,363.945984 
	C225.435959,369.061920 220.954880,371.750641 216.133179,371.597076 
	C210.961945,371.432434 207.643250,368.779938 205.758972,363.305511 
	C204.563248,359.831482 206.351593,352.713013 209.619141,350.537750 
	C214.615738,347.211456 219.858322,344.212921 225.191238,341.451416 
	C227.813034,340.093811 229.688980,341.230103 229.623611,344.522003 
	C229.584061,346.514191 229.615738,348.507843 229.614594,350.970398 
z"/>
<path fill="none" opacity="1.000000" stroke="none" 
	d="
M367.972290,149.766815 
	C366.325531,149.826874 365.163422,149.862717 364.001129,149.872589 
	C355.846954,149.941803 355.357605,149.888931 356.192841,141.898972 
	C356.678131,137.256744 358.279755,132.339752 360.737854,128.392593 
	C363.933167,123.261681 370.567688,123.682800 374.511780,128.462112 
	C379.087067,134.006332 379.064362,140.721313 378.957825,147.350510 
	C378.944641,148.168808 377.059784,149.483612 375.910522,149.648132 
	C373.472015,149.997162 370.946625,149.739471 367.972290,149.766815 
z"/>
<path fill="none" opacity="1.000000" stroke="none" 
	d="
M389.637512,328.500305 
	C383.980469,329.308929 378.474579,329.869843 372.957672,330.015930 
	C365.347595,330.217407 365.385651,330.091858 367.002045,322.229919 
	C367.529327,319.665222 367.699158,317.028809 368.171051,314.450592 
	C368.979126,310.035492 370.810028,306.178711 375.618317,305.151489 
	C380.313751,304.148407 386.157013,307.195343 387.482635,312.013977 
	C388.905151,317.184875 389.070038,322.701721 389.637512,328.500305 
z"/>
</svg>